<?xml version="1.0" encoding="UTF-8"?>
<svg version="1.1" xmlns="http://www.w3.org/2000/svg" width="348" height="447">
<path d="M0 0 C114.84 0 229.68 0 348 0 C348 147.51 348 295.02 348 447 C233.16 447 118.32 447 0 447 C0 299.49 0 151.98 0 0 Z " fill="#003662" transform="translate(0,0)"/>
<path d="M0 0 C114.84 0 229.68 0 348 0 C348 147.51 348 295.02 348 447 C233.16 447 118.32 447 0 447 C0 299.49 0 151.98 0 0 Z M163.125 18.75 C152.08091346 23.50745266 140.53637532 25.70232398 128.625 27 C114.29361122 28.66017078 100.66763184 34.06571188 90.6875 44.8359375 C85.55351243 51.41980118 83.40040622 57.72493811 83 66 C82.34773438 65.66226563 81.69546875 65.32453125 81.0234375 64.9765625 C74.19380909 61.49123591 68.77859021 58.881817 61 59 C60.85304687 59.85722656 60.70609375 60.71445312 60.5546875 61.59765625 C58.59685088 71.57812222 55.65632404 75.94016316 48.0625 82.3125 C44.18509896 85.59507247 41.63830685 89.25026209 38.84765625 93.46484375 C36.92993701 96.09613294 34.86295029 98.20249287 32.5 100.4375 C23.46449429 109.24250812 19.42076014 119.11215176 16 131 C15.79890625 131.66644531 15.5978125 132.33289063 15.390625 133.01953125 C12.37877274 148.28962221 17.34190042 163.2312218 25.7109375 175.91015625 C34.2233472 187.40045671 44.82663711 197.44530371 57 205 C57.66 205 58.32 205 59 205 C59 205.66 59 206.32 59 207 C57.824375 207.309375 56.64875 207.61875 55.4375 207.9375 C50.70039576 209.51904514 46.53497234 211.7893079 42.25 214.3125 C41.61247803 214.67915771 40.97495605 215.04581543 40.31811523 215.42358398 C35.94257138 218.06815605 33.08421059 220.92107264 30 225 C31.33804687 225.81404297 31.33804687 225.81404297 32.703125 226.64453125 C33.88548104 227.36708217 35.06776913 228.0897443 36.25 228.8125 C36.83652344 229.16892578 37.42304687 229.52535156 38.02734375 229.89257812 C40.50648324 231.41070287 42.91931303 232.93863841 45.234375 234.69921875 C48.25521603 236.92474986 50.9338839 237.1369559 54.5625 237.125 C55.34753906 237.12757813 56.13257813 237.13015625 56.94140625 237.1328125 C59.06438977 237.12976366 59.06438977 237.12976366 61 236 C60.47599609 237.03060547 60.47599609 237.03060547 59.94140625 238.08203125 C59.25884766 239.43361328 59.25884766 239.43361328 58.5625 240.8125 C58.11003906 241.70582031 57.65757813 242.59914062 57.19140625 243.51953125 C53.81674832 250.54545841 53.43890479 259.63707868 55.62695312 267.15380859 C57.42428957 271.91984142 59.7035704 276.45883307 62 281 C64.65134404 286.49609921 66.0456057 290.83173026 66.32055664 296.98706055 C66.68274827 304.05067395 66.68274827 304.05067395 70.87109375 309.62890625 C73.14117009 311.0733534 75.38768593 312.16641129 77.8359375 313.32421875 C81.83822652 315.4439496 83.98871729 317.97743458 86 322 C86.66 322 87.32 322 88 322 C89.19713711 318.40858866 89.13248902 315.47319892 89.125 311.6875 C89.12757812 310.39199219 89.13015625 309.09648437 89.1328125 307.76171875 C89.01427685 304.40437077 88.64302729 301.2916873 88 298 C92.86021112 303.47155843 95.82894997 308.53488793 96 316 C94.7815561 320.30039024 93.54584638 322.47954182 90.3125 325.5625 C86.78794714 329.54631278 87.38409699 334.41492486 87.5859375 339.4609375 C88.60488966 348.17009462 92.25025855 355.33892652 99 361 C102.3830379 363.14329109 105.82951165 365.08281362 109.3515625 366.984375 C127.05524785 376.58287178 127.05524785 376.58287178 132 384 C132.66 384 133.32 384 134 384 C134.49879632 377.51564781 133.09616844 372.63185092 130.875 366.5390625 C130 364 130 364 130 362 C135.55251521 370.4455733 138.86837437 377.84150652 139.375 388 C139.99646262 396.82476914 143.20356641 402.66100448 149.6875 408.625 C153.16218183 411.56551432 156.73504727 414.37359315 160.3125 417.1875 C165.07294322 420.94810091 168.61468605 424.54905993 171.625 429.875 C172.305625 430.926875 172.305625 430.926875 173 432 C173.99 432 174.98 432 176 432 C176.45375 430.865625 176.9075 429.73125 177.375 428.5625 C181.10242745 421.10764509 188.23878964 416.29972255 194.75 411.375 C200.62948252 406.86670422 206.30893049 401.48902213 208 394 C208.0840117 391.85490117 208.14369803 389.70879642 208.1875 387.5625 C208.59511023 378.54654986 212.62325231 371.67675563 217 364 C217 366.59533719 216.24139116 368.69903429 215.5 371.1875 C214.24404819 375.66883041 213.69148021 379.37220312 214 384 C217.14325209 382.61144248 219.14907145 380.9860055 221.5625 378.5625 C226.13138895 374.37371828 231.12100672 371.49996272 236.5 368.5 C247.78164006 362.15584396 255.77193218 356.68420346 260 344 C260.19978883 341.35707914 260.32257043 338.77030994 260.375 336.125 C260.41238281 335.41730469 260.44976562 334.70960938 260.48828125 333.98046875 C260.55538138 329.97682784 260.26298016 328.30238436 257.6015625 325.2421875 C256.74304688 324.50226563 255.88453125 323.76234375 255 323 C252.20937655 318.59285688 252.13822716 314.05573399 253 309 C254.67374765 305.41895852 256.70370079 302.21208521 259 299 C259.33 299.33 259.66 299.66 260 300 C259.85820312 300.69867188 259.71640625 301.39734375 259.5703125 302.1171875 C258.89977181 305.50663289 258.86766731 308.67130469 258.875 312.125 C258.87242187 313.34445312 258.86984375 314.56390625 258.8671875 315.8203125 C258.85426467 319.02339601 258.85426467 319.02339601 260 322 C260.66 322 261.32 322 262 322 C262.66 320.96875 263.32 319.9375 264 318.875 C267.29567634 314.01042385 271.95115409 311.7640292 277 309 C277.99 308.34 278.98 307.68 280 307 C280.39825977 304.54456383 280.64378768 302.22166422 280.8125 299.75 C281.62052498 291.25806048 284.25618506 284.68921991 288 277 C293.59719542 264.70422554 295.69941988 256.92245758 291.16796875 243.796875 C290.0035369 241.00846962 288.62123981 238.54567169 287 236 C287.99 236.33 288.98 236.66 290 237 C295.82463909 238.0678505 299.59403754 236.99812057 304.5625 233.8125 C306.38197853 232.55167825 308.194766 231.2811338 310 230 C311.55506836 229.00907316 313.11669853 228.02829313 314.6875 227.0625 C316.3271875 226.0415625 316.3271875 226.0415625 318 225 C312.15880081 216.34637157 301.36095534 211.16042459 292 207 C291.01 207 290.02 207 289 207 C289 206.34 289 205.68 289 205 C289.69867188 204.76152344 290.39734375 204.52304688 291.1171875 204.27734375 C308.70783243 196.4831149 323.01344581 178.52627022 330 161 C335.37333467 146.37258894 333.38460234 132.02147761 327.71484375 117.76953125 C323.88093506 109.51434624 318.60233565 101.61710511 311.390625 95.94921875 C309.01157845 94.0094406 307.83147734 92.44315791 306.3125 89.8125 C303.91190027 86.01518771 301.28126914 83.30109023 297.875 80.375 C292.26787087 75.50143513 289.15060492 71.71583598 288.3125 64.125 C288.24482422 62.98417969 288.24482422 62.98417969 288.17578125 61.8203125 C288.19286824 59.98091289 288.19286824 59.98091289 287 59 C278.61888638 59.45715165 270.98684161 62.3421056 264 67 C264.0825 65.72125 264.165 64.4425 264.25 63.125 C264.17286653 54.9102856 261.24408491 48.91479368 255.75 42.875 C245.99375798 33.77776992 234.36064607 29.41028439 221.33251953 27.38037109 C216.36849812 26.57087294 211.43511772 25.59300716 206.5 24.625 C205.42242432 24.41367432 204.34484863 24.20234863 203.23461914 23.98461914 C181.60453026 19.60453026 181.60453026 19.60453026 178 16 C172.17791738 15.62438177 168.50532013 16.28554497 163.125 18.75 Z " fill="#FDFDFD" transform="translate(0,0)"/>
<path d="M0 0 C3.09367181 0.35608344 4.95483083 1.51468692 7.3203125 3.46875 C15.98353589 10.71690217 15.98353589 10.71690217 26.65625 13.4609375 C33.95137609 12.02622937 38.86389519 8.00073022 44.36914062 3.3203125 C48.50336997 -0.04212849 48.50336997 -0.04212849 51.39453125 0.203125 C51.92433594 0.46609375 52.45414062 0.7290625 53 1 C53.40820882 11.09182907 52.16108676 20.99599356 51 31 C53.76111966 28.56566111 55.16447666 26.00085979 56.77734375 22.7109375 C57.29103516 21.68742187 57.80472656 20.66390625 58.33398438 19.609375 C59.40533762 17.44839939 60.4704233 15.28430544 61.52929688 13.1171875 C62.04427734 12.09625 62.55925781 11.0753125 63.08984375 10.0234375 C63.78388306 8.61457275 63.78388306 8.61457275 64.49194336 7.17724609 C66 5 66 5 68.18188477 4.18603516 C69.08185181 4.09394775 69.08185181 4.09394775 70 4 C70.74365803 5.69013188 71.4827103 7.38247892 72.1953125 9.0859375 C72.85371078 10.65203048 73.54700548 12.20341207 74.25 13.75 C76.30860475 22.67062059 73.21227816 32.5076201 71.15356445 41.20776367 C70.68634983 43.19238566 70.23814644 45.1806909 69.79101562 47.16992188 C67.43431048 57.26354241 65.09157187 66.30865246 55.96875 72.34375 C31.32949309 86.08986175 31.32949309 86.08986175 20 83 C-7.36032989 73.25991834 -7.36032989 73.25991834 -13.04980469 61.90478516 C-15.89133249 54.90191857 -17.61335195 47.8175967 -19.1875 40.4375 C-19.57711914 38.68663086 -19.57711914 38.68663086 -19.97460938 36.90039062 C-23.89090198 18.93806667 -23.89090198 18.93806667 -21.3125 11.5 C-20.97863281 10.4790625 -20.64476563 9.458125 -20.30078125 8.40625 C-19 6 -19 6 -16.91870117 5.34960938 C-16.28552979 5.23423828 -15.6523584 5.11886719 -15 5 C-10.96871523 11.23074527 -7.49406543 17.65009291 -4.13085938 24.25976562 C-3.75380859 24.98744141 -3.37675781 25.71511719 -2.98828125 26.46484375 C-2.65352783 27.120896 -2.31877441 27.77694824 -1.97387695 28.45288086 C-1.07398622 30.17913413 -1.07398622 30.17913413 1 31 C0.89864746 30.13197754 0.79729492 29.26395508 0.69287109 28.36962891 C0.32263899 25.15391099 -0.03780613 21.93729101 -0.39160156 18.71972656 C-0.54685097 17.32637938 -0.70601422 15.93346258 -0.86914062 14.54101562 C-1.10269816 12.54153529 -1.32110556 10.54030349 -1.5390625 8.5390625 C-1.74329834 6.73236084 -1.74329834 6.73236084 -1.95166016 4.88916016 C-1.97558838 3.45902588 -1.97558838 3.45902588 -2 2 C-1.34 1.34 -0.68 0.68 0 0 Z " fill="#6A818D" transform="translate(148,213)"/>
<path d="M0 0 C-0.268125 0.78375 -0.53625 1.5675 -0.8125 2.375 C-1.204375 3.57125 -1.59625 4.7675 -2 6 C-2.26425781 6.73863281 -2.52851562 7.47726563 -2.80078125 8.23828125 C-6.01327761 17.78441974 -6.09319877 26.10130474 -2.25390625 35.4921875 C1.69950699 43.39901399 7.7479012 47.89382791 16.06835938 50.69677734 C21.01250133 52.25314939 25.99607393 53.64991662 31 55 C26.2734375 58.875 26.2734375 58.875 23.8125 60 C21.4538466 61.30132601 21.01325903 62.53922806 20 65 C19.33333333 66.33333333 18.66666667 67.66666667 18 69 C18.56589844 69.13277344 19.13179687 69.26554687 19.71484375 69.40234375 C20.44832031 69.57894531 21.18179688 69.75554687 21.9375 69.9375 C22.66839844 70.11152344 23.39929688 70.28554687 24.15234375 70.46484375 C26 71 26 71 27 72 C26.9140625 73.99609375 26.9140625 73.99609375 26.625 76.4375 C26.48964844 77.64212891 26.48964844 77.64212891 26.3515625 78.87109375 C26 81 26 81 25 83 C25.08780403 85.04498425 25.24241538 87.08744948 25.4375 89.125 C25.59025391 90.76855469 25.59025391 90.76855469 25.74609375 92.4453125 C25.82988281 93.28835937 25.91367188 94.13140625 26 95 C13.9397463 94.76352444 3.69366666 86.72105335 -5 79 C-5.69738281 78.39671875 -6.39476563 77.7934375 -7.11328125 77.171875 C-16.80551522 68.21361603 -23.23719365 56.70943505 -24.2734375 43.51953125 C-24.47069162 36.44114303 -24.0167701 30.43198153 -21 24 C-20.58621094 23.11699219 -20.17242187 22.23398438 -19.74609375 21.32421875 C-16.48532589 14.90041722 -8.31805753 0 0 0 Z " fill="#FBFCFC" transform="translate(53,98)"/>
<path d="M0 0 C9.71324429 3.0764368 15.79690284 13.67537898 20.625 22.078125 C25.05499032 31.49185442 25.54714657 42.86644995 23.34765625 53.0078125 C22.41533461 55.49667114 21.32371972 57.69633255 20 60 C19.53722656 60.86496094 19.07445312 61.72992188 18.59765625 62.62109375 C9.972832 77.4878446 -4.55725874 89.66721905 -21 95 C-24.0625 95.25 -24.0625 95.25 -26 95 C-25.7525 94.01 -25.7525 94.01 -25.5 93 C-24.41775215 86.50651291 -24.96844674 81.21536603 -26.85546875 74.98046875 C-27 73 -27 73 -25.78125 71.28125 C-23.06426649 69.32692853 -20.26925365 69.30842016 -17 69 C-20.88182102 63.0743414 -24.72338959 59.31354052 -31 56 C-27.56704973 54.06737614 -24.12139261 53.2053658 -20.3125 52.25 C-11.02145284 49.63538548 -3.32137994 45.2720169 2 37 C5.97166981 29.34250026 6.41187011 20.10689955 4.1328125 11.86328125 C3.45362564 10.00667192 2.73749261 8.16284082 1.97265625 6.33984375 C1.095477 4.22968163 0.48866562 2.22728646 0 0 Z " fill="#FCFCFD" transform="translate(295,98)"/>
<path d="M0 0 C11.00367088 2.27543436 20.35832643 1.10924338 31.31323242 -1.12768555 C50.49733965 -5.01919853 50.49733965 -5.01919853 54.71166992 -2.3425293 C57.83636713 1.76653785 60.17862557 5.10637702 60.68823242 10.37231445 C59.05143531 18.34671016 56.92308019 26.48491825 49.93823242 31.24731445 C49.19573242 31.61856445 48.45323242 31.98981445 47.68823242 32.37231445 C46.22264462 28.44097421 47.08790323 25.20720499 47.93823242 21.18481445 C48.19088867 19.93313477 48.44354492 18.68145508 48.70385742 17.3918457 C49.02870117 16.39540039 49.35354492 15.39895508 49.68823242 14.37231445 C50.67823242 14.04231445 51.66823242 13.71231445 52.68823242 13.37231445 C52.68823242 12.71231445 52.68823242 12.05231445 52.68823242 11.37231445 C53.34823242 11.37231445 54.00823242 11.37231445 54.68823242 11.37231445 C54.68823242 10.71231445 54.68823242 10.05231445 54.68823242 9.37231445 C33.49429853 15.32274072 33.49429853 15.32274072 18.45947266 29.85424805 C17.08717317 32.6533616 15.8618962 35.48422032 14.68823242 38.37231445 C13.36823242 38.37231445 12.04823242 38.37231445 10.68823242 38.37231445 C10.43170898 37.58727539 10.17518555 36.80223633 9.91088867 35.9934082 C6.70617094 27.19931746 3.2292102 22.48799694 -5.27172852 18.4387207 C-12.45695443 15.19902627 -19.69895485 12.42038087 -27.31176758 10.37231445 C-26.67754883 11.02586914 -26.04333008 11.67942383 -25.38989258 12.3527832 C-22.76272755 16.17007374 -22.45009331 19.15839268 -22.06176758 23.68481445 C-21.98442383 24.42538086 -21.90708008 25.16594727 -21.82739258 25.92895508 C-21.64025017 27.74189713 -21.47389053 29.55696399 -21.31176758 31.37231445 C-22.30176758 31.86731445 -22.30176758 31.86731445 -23.31176758 32.37231445 C-29.81103178 28.47275593 -32.01705542 21.25645093 -34.31176758 14.37231445 C-34.95528379 10.24240659 -35.07646037 6.77699628 -33.04223633 3.0402832 C-24.98495527 -7.83998684 -11.72038413 -2.5242059 0 0 Z " fill="#687F8D" transform="translate(161.311767578125,307.627685546875)"/>
<path d="M0 0 C10.89 0 21.78 0 33 0 C33 44.55 33 89.1 33 135 C32.01 135 31.02 135 30 135 C30 130.05 30 125.1 30 120 C29.01 120 28.02 120 27 120 C24.69 115.05 22.38 110.1 20 105 C23.3 105 26.6 105 30 105 C30 100.05 30 95.1 30 90 C25.05 90 20.1 90 15 90 C15 85.05 15 80.1 15 75 C19.95 75 24.9 75 30 75 C30 70.05 30 65.1 30 60 C25.05 60 20.1 60 15 60 C15 55.05 15 50.1 15 45 C19.95 45 24.9 45 30 45 C30 40.05 30 35.1 30 30 C25.05 30 20.1 30 15 30 C15 25.05 15 20.1 15 15 C10.05 15 5.1 15 0 15 C0 10.05 0 5.1 0 0 Z " fill="#F5F5F5" transform="translate(315,0)"/>
<path d="M0 0 C0.99 0.33 1.98 0.66 3 1 C3.14695313 2.34191406 3.14695313 2.34191406 3.296875 3.7109375 C4.25487779 11.45754629 5.89610529 17.88346574 9 25 C12.05031001 32.50017402 12.45750543 38.2076084 10 46 C7.87791066 50.50943985 5.11605916 52.68910772 1.1875 55.5625 C-5.04078027 60.29599301 -7.78045892 66.00655976 -11 73 C-17.82282403 66.88849166 -20.78570661 56.92241664 -22 48 C-22.125 44.4375 -22.125 44.4375 -22 42 C-20.39125 41.7525 -20.39125 41.7525 -18.75 41.5 C-16.41848953 40.82599057 -15.29057423 40.38238782 -13.80932617 38.43310547 C-11.23099717 33.1866976 -10.21503197 28.40456885 -9.5625 22.625 C-8.39293299 13.94062884 -6.64963076 6.18570303 0 0 Z " fill="#687F8C" transform="translate(239,145)"/>
<path d="M0 0 C4.52709322 1.50903107 6.81888282 4.95600694 9 9 C10.36340989 12.95157783 10.86954944 17.01735375 11.41796875 21.1484375 C12.5965594 31.13794659 12.5965594 31.13794659 17 40 C19.44584695 41.33601102 21.18338793 41.62084068 24 42 C24.85210328 52.86431681 20.72079621 62.92644207 15 72 C14.01 72 13.02 72 12 72 C11.55914062 70.89205078 11.55914062 70.89205078 11.109375 69.76171875 C7.90454233 62.51400809 4.27901009 57.7720995 -1.77246094 52.83081055 C-6.08830175 49.25298683 -8.46210939 45.8645802 -9.50390625 40.31640625 C-9.6518482 33.36313457 -8.07276353 28.00945314 -5.28662109 21.73779297 C-2.84400895 16.09641839 -1.96854294 10.86194085 -1.32421875 4.73046875 C-1 2 -1 2 0 0 Z " fill="#687F8D" transform="translate(107,145)"/>
<path d="M0 0 C0.61875 0.268125 1.2375 0.53625 1.875 0.8125 C2.77570354 3.51461061 3.09657525 5.38318931 3.1875 8.1875 C3.22488281 8.93773437 3.26226562 9.68796875 3.30078125 10.4609375 C2.68989093 13.83484549 1.26012745 15.37620645 -1.125 17.8125 C-4.10546875 19.61328125 -4.10546875 19.61328125 -7.3125 21.125 C-8.37855469 21.63675781 -9.44460937 22.14851563 -10.54296875 22.67578125 C-13.125 23.8125 -13.125 23.8125 -14.125 23.8125 C-14.5974049 16.55583579 -14.58314998 11.71653646 -10.125 5.8125 C-3.35599203 -0.29611694 -3.35599203 -0.29611694 0 0 Z " fill="#F7F8F9" transform="translate(259.125,213.1875)"/>
<path d="M0 0 C0.66 0 1.32 0 2 0 C1.57689454 4.7951952 -0.68953904 7.69832011 -4 11 C-5.07426785 11.84498766 -6.15753378 12.678676 -7.25 13.5 C-10.21366485 15.76678179 -10.21366485 15.76678179 -10.9375 19.0625 C-10.99268696 21.65628705 -10.84306927 23.56446656 -10 26 C-10.99 26 -11.98 26 -13 26 C-18.83068409 19.75481231 -22.05584821 11.89629652 -25 4 C-24.34 3.67 -23.68 3.34 -23 3 C-22.29875 3.309375 -21.5975 3.61875 -20.875 3.9375 C-15.07537115 6.0808411 -10.58030593 5.47489528 -5.0625 3.0625 C-2.32893933 1.81986327 -2.32893933 1.81986327 0 0 Z " fill="#647D8B" transform="translate(269,239)"/>
<path d="M0 0 C0.99 0 1.98 0 3 0 C3 8.91 3 17.82 3 27 C-2.94 27 -8.88 27 -15 27 C-15 23.04 -15 19.08 -15 15 C-10.05 15 -5.1 15 0 15 C0 10.05 0 5.1 0 0 Z " fill="#EEEEEE" transform="translate(345,420)"/>
<path d="M0 0 C2.8366585 1.11747153 5.57189497 2.28055225 8.3125 3.625 C14.57829594 5.96139849 19.73837581 5.50464967 26 3 C26.33 3.66 26.66 4.32 27 5 C25.87323603 7.6589245 24.68572267 10.18374299 23.375 12.75 C23.03082031 13.45382813 22.68664062 14.15765625 22.33203125 14.8828125 C20.02363079 19.46554109 17.42497311 23.17845105 14 27 C13.34 26.67 12.68 26.34 12 26 C12.0721875 25.37351562 12.144375 24.74703125 12.21875 24.1015625 C12.3115625 23.28429687 12.404375 22.46703125 12.5 21.625 C12.5928125 20.81289063 12.685625 20.00078125 12.78125 19.1640625 C13.03352351 17.03087175 13.03352351 17.03087175 13 15 C12.12214844 14.59394531 12.12214844 14.59394531 11.2265625 14.1796875 C9.01620758 13.00858717 7.27714736 11.74224423 5.375 10.125 C4.78460938 9.63257813 4.19421875 9.14015625 3.5859375 8.6328125 C0.91246032 5.88031629 0 3.84021102 0 0 Z " fill="#647D8B" transform="translate(77,239)"/>
<path d="M0 0 C5.32982718 0.32301983 8.46310593 3.29717757 12 7 C15.82578227 12.30673025 15.30158979 17.72246429 15 24 C2.48475471 19.43132793 2.48475471 19.43132793 -1.3125 14.1875 C-2.89761053 9.14396651 -2.27399887 4.69012267 0 0 Z " fill="#F8F9FA" transform="translate(88,213)"/>
<path d="M0 0 C4.95 0 9.9 0 15 0 C15 4.95 15 9.9 15 15 C10.05 15 5.1 15 0 15 C0 10.05 0 5.1 0 0 Z " fill="#FFFFFF" transform="translate(330,420)"/>
<path d="M0 0 C4.95 0 9.9 0 15 0 C15 4.95 15 9.9 15 15 C10.05 15 5.1 15 0 15 C0 10.05 0 5.1 0 0 Z " fill="#EEEEEE" transform="translate(315,420)"/>
<path d="M0 0 C4.95 0 9.9 0 15 0 C15 4.95 15 9.9 15 15 C10.05 15 5.1 15 0 15 C0 10.05 0 5.1 0 0 Z " fill="#FFFFFF" transform="translate(300,420)"/>
<path d="M0 0 C4.95 0 9.9 0 15 0 C15 4.95 15 9.9 15 15 C10.05 15 5.1 15 0 15 C0 10.05 0 5.1 0 0 Z " fill="#EEEEEE" transform="translate(285,420)"/>
<path d="M0 0 C4.95 0 9.9 0 15 0 C15 4.95 15 9.9 15 15 C10.05 15 5.1 15 0 15 C0 10.05 0 5.1 0 0 Z " fill="#FFFFFF" transform="translate(270,420)"/>
<path d="M0 0 C4.95 0 9.9 0 15 0 C15 4.95 15 9.9 15 15 C10.05 15 5.1 15 0 15 C0 10.05 0 5.1 0 0 Z " fill="#EEEEEE" transform="translate(255,420)"/>
<path d="M0 0 C4.95 0 9.9 0 15 0 C15 4.95 15 9.9 15 15 C10.05 15 5.1 15 0 15 C0 10.05 0 5.1 0 0 Z " fill="#FFFFFF" transform="translate(240,420)"/>
<path d="M0 0 C4.95 0 9.9 0 15 0 C15 4.95 15 9.9 15 15 C10.05 15 5.1 15 0 15 C0 10.05 0 5.1 0 0 Z " fill="#EEEEEE" transform="translate(225,420)"/>
<path d="M0 0 C4.95 0 9.9 0 15 0 C15 4.95 15 9.9 15 15 C10.05 15 5.1 15 0 15 C0 10.05 0 5.1 0 0 Z " fill="#FFFFFF" transform="translate(210,420)"/>
<path d="M0 0 C4.95 0 9.9 0 15 0 C15 4.95 15 9.9 15 15 C10.05 15 5.1 15 0 15 C0 10.05 0 5.1 0 0 Z " fill="#FFFFFF" transform="translate(120,420)"/>
<path d="M0 0 C4.95 0 9.9 0 15 0 C15 4.95 15 9.9 15 15 C10.05 15 5.1 15 0 15 C0 10.05 0 5.1 0 0 Z " fill="#FFFFFF" transform="translate(90,420)"/>
<path d="M0 0 C4.95 0 9.9 0 15 0 C15 4.95 15 9.9 15 15 C10.05 15 5.1 15 0 15 C0 10.05 0 5.1 0 0 Z " fill="#EEEEEE" transform="translate(75,420)"/>
<path d="M0 0 C4.95 0 9.9 0 15 0 C15 4.95 15 9.9 15 15 C10.05 15 5.1 15 0 15 C0 10.05 0 5.1 0 0 Z " fill="#FFFFFF" transform="translate(60,420)"/>
<path d="M0 0 C4.95 0 9.9 0 15 0 C15 4.95 15 9.9 15 15 C10.05 15 5.1 15 0 15 C0 10.05 0 5.1 0 0 Z " fill="#EEEEEE" transform="translate(45,420)"/>
<path d="M0 0 C4.95 0 9.9 0 15 0 C15 4.95 15 9.9 15 15 C10.05 15 5.1 15 0 15 C0 10.05 0 5.1 0 0 Z " fill="#FFFFFF" transform="translate(30,420)"/>
<path d="M0 0 C4.95 0 9.9 0 15 0 C15 4.95 15 9.9 15 15 C10.05 15 5.1 15 0 15 C0 10.05 0 5.1 0 0 Z " fill="#EEEEEE" transform="translate(15,420)"/>
<path d="M0 0 C4.95 0 9.9 0 15 0 C15 4.95 15 9.9 15 15 C10.05 15 5.1 15 0 15 C0 10.05 0 5.1 0 0 Z " fill="#EEEEEE" transform="translate(330,405)"/>
<path d="M0 0 C4.95 0 9.9 0 15 0 C15 4.95 15 9.9 15 15 C10.05 15 5.1 15 0 15 C0 10.05 0 5.1 0 0 Z " fill="#FFFFFF" transform="translate(315,405)"/>
<path d="M0 0 C4.95 0 9.9 0 15 0 C15 4.95 15 9.9 15 15 C10.05 15 5.1 15 0 15 C0 10.05 0 5.1 0 0 Z " fill="#EEEEEE" transform="translate(300,405)"/>
<path d="M0 0 C4.95 0 9.9 0 15 0 C15 4.95 15 9.9 15 15 C10.05 15 5.1 15 0 15 C0 10.05 0 5.1 0 0 Z " fill="#FFFFFF" transform="translate(285,405)"/>
<path d="M0 0 C4.95 0 9.9 0 15 0 C15 4.95 15 9.9 15 15 C10.05 15 5.1 15 0 15 C0 10.05 0 5.1 0 0 Z " fill="#EEEEEE" transform="translate(270,405)"/>
<path d="M0 0 C4.95 0 9.9 0 15 0 C15 4.95 15 9.9 15 15 C10.05 15 5.1 15 0 15 C0 10.05 0 5.1 0 0 Z " fill="#FFFFFF" transform="translate(255,405)"/>
<path d="M0 0 C4.95 0 9.9 0 15 0 C15 4.95 15 9.9 15 15 C10.05 15 5.1 15 0 15 C0 10.05 0 5.1 0 0 Z " fill="#EEEEEE" transform="translate(240,405)"/>
<path d="M0 0 C4.95 0 9.9 0 15 0 C15 4.95 15 9.9 15 15 C10.05 15 5.1 15 0 15 C0 10.05 0 5.1 0 0 Z " fill="#FFFFFF" transform="translate(225,405)"/>
<path d="M0 0 C4.95 0 9.9 0 15 0 C15 4.95 15 9.9 15 15 C10.05 15 5.1 15 0 15 C0 10.05 0 5.1 0 0 Z " fill="#FFFFFF" transform="translate(105,405)"/>
<path d="M0 0 C4.95 0 9.9 0 15 0 C15 4.95 15 9.9 15 15 C10.05 15 5.1 15 0 15 C0 10.05 0 5.1 0 0 Z " fill="#EEEEEE" transform="translate(90,405)"/>
<path d="M0 0 C4.95 0 9.9 0 15 0 C15 4.95 15 9.9 15 15 C10.05 15 5.1 15 0 15 C0 10.05 0 5.1 0 0 Z " fill="#FFFFFF" transform="translate(75,405)"/>
<path d="M0 0 C4.95 0 9.9 0 15 0 C15 4.95 15 9.9 15 15 C10.05 15 5.1 15 0 15 C0 10.05 0 5.1 0 0 Z " fill="#EEEEEE" transform="translate(60,405)"/>
<path d="M0 0 C4.95 0 9.9 0 15 0 C15 4.95 15 9.9 15 15 C10.05 15 5.1 15 0 15 C0 10.05 0 5.1 0 0 Z " fill="#FFFFFF" transform="translate(45,405)"/>
<path d="M0 0 C4.95 0 9.9 0 15 0 C15 4.95 15 9.9 15 15 C10.05 15 5.1 15 0 15 C0 10.05 0 5.1 0 0 Z " fill="#EEEEEE" transform="translate(30,405)"/>
<path d="M0 0 C4.95 0 9.9 0 15 0 C15 4.95 15 9.9 15 15 C10.05 15 5.1 15 0 15 C0 10.05 0 5.1 0 0 Z " fill="#FFFFFF" transform="translate(15,405)"/>
<path d="M0 0 C4.95 0 9.9 0 15 0 C15 4.95 15 9.9 15 15 C10.05 15 5.1 15 0 15 C0 10.05 0 5.1 0 0 Z " fill="#EEEEEE" transform="translate(0,405)"/>
<path d="M0 0 C4.95 0 9.9 0 15 0 C15 4.95 15 9.9 15 15 C10.05 15 5.1 15 0 15 C0 10.05 0 5.1 0 0 Z " fill="#FFFFFF" transform="translate(330,390)"/>
<path d="M0 0 C4.95 0 9.9 0 15 0 C15 4.95 15 9.9 15 15 C10.05 15 5.1 15 0 15 C0 10.05 0 5.1 0 0 Z " fill="#EEEEEE" transform="translate(315,390)"/>
<path d="M0 0 C4.95 0 9.9 0 15 0 C15 4.95 15 9.9 15 15 C10.05 15 5.1 15 0 15 C0 10.05 0 5.1 0 0 Z " fill="#FFFFFF" transform="translate(300,390)"/>
<path d="M0 0 C4.95 0 9.9 0 15 0 C15 4.95 15 9.9 15 15 C10.05 15 5.1 15 0 15 C0 10.05 0 5.1 0 0 Z " fill="#EEEEEE" transform="translate(285,390)"/>
<path d="M0 0 C4.95 0 9.9 0 15 0 C15 4.95 15 9.9 15 15 C10.05 15 5.1 15 0 15 C0 10.05 0 5.1 0 0 Z " fill="#FFFFFF" transform="translate(270,390)"/>
<path d="M0 0 C4.95 0 9.9 0 15 0 C15 4.95 15 9.9 15 15 C10.05 15 5.1 15 0 15 C0 10.05 0 5.1 0 0 Z " fill="#EEEEEE" transform="translate(255,390)"/>
<path d="M0 0 C4.95 0 9.9 0 15 0 C15 4.95 15 9.9 15 15 C10.05 15 5.1 15 0 15 C0 10.05 0 5.1 0 0 Z " fill="#FFFFFF" transform="translate(240,390)"/>
<path d="M0 0 C4.95 0 9.9 0 15 0 C15 4.95 15 9.9 15 15 C10.05 15 5.1 15 0 15 C0 10.05 0 5.1 0 0 Z " fill="#EEEEEE" transform="translate(105,390)"/>
<path d="M0 0 C4.95 0 9.9 0 15 0 C15 4.95 15 9.9 15 15 C10.05 15 5.1 15 0 15 C0 10.05 0 5.1 0 0 Z " fill="#FFFFFF" transform="translate(90,390)"/>
<path d="M0 0 C4.95 0 9.9 0 15 0 C15 4.95 15 9.9 15 15 C10.05 15 5.1 15 0 15 C0 10.05 0 5.1 0 0 Z " fill="#EEEEEE" transform="translate(75,390)"/>
<path d="M0 0 C4.95 0 9.9 0 15 0 C15 4.95 15 9.9 15 15 C10.05 15 5.1 15 0 15 C0 10.05 0 5.1 0 0 Z " fill="#FFFFFF" transform="translate(60,390)"/>
<path d="M0 0 C4.95 0 9.9 0 15 0 C15 4.95 15 9.9 15 15 C10.05 15 5.1 15 0 15 C0 10.05 0 5.1 0 0 Z " fill="#EEEEEE" transform="translate(45,390)"/>
<path d="M0 0 C4.95 0 9.9 0 15 0 C15 4.95 15 9.9 15 15 C10.05 15 5.1 15 0 15 C0 10.05 0 5.1 0 0 Z " fill="#FFFFFF" transform="translate(30,390)"/>
<path d="M0 0 C4.95 0 9.9 0 15 0 C15 4.95 15 9.9 15 15 C10.05 15 5.1 15 0 15 C0 10.05 0 5.1 0 0 Z " fill="#EEEEEE" transform="translate(15,390)"/>
<path d="M0 0 C4.95 0 9.9 0 15 0 C15 4.95 15 9.9 15 15 C10.05 15 5.1 15 0 15 C0 10.05 0 5.1 0 0 Z " fill="#FFFFFF" transform="translate(0,390)"/>
<path d="M0 0 C4.95 0 9.9 0 15 0 C15 4.95 15 9.9 15 15 C10.05 15 5.1 15 0 15 C0 10.05 0 5.1 0 0 Z " fill="#EEEEEE" transform="translate(330,375)"/>
<path d="M0 0 C4.95 0 9.9 0 15 0 C15 4.95 15 9.9 15 15 C10.05 15 5.1 15 0 15 C0 10.05 0 5.1 0 0 Z " fill="#FFFFFF" transform="translate(315,375)"/>
<path d="M0 0 C4.95 0 9.9 0 15 0 C15 4.95 15 9.9 15 15 C10.05 15 5.1 15 0 15 C0 10.05 0 5.1 0 0 Z " fill="#EEEEEE" transform="translate(300,375)"/>
<path d="M0 0 C4.95 0 9.9 0 15 0 C15 4.95 15 9.9 15 15 C10.05 15 5.1 15 0 15 C0 10.05 0 5.1 0 0 Z " fill="#FFFFFF" transform="translate(285,375)"/>
<path d="M0 0 C4.95 0 9.9 0 15 0 C15 4.95 15 9.9 15 15 C10.05 15 5.1 15 0 15 C0 10.05 0 5.1 0 0 Z " fill="#EEEEEE" transform="translate(270,375)"/>
<path d="M0 0 C4.95 0 9.9 0 15 0 C15 4.95 15 9.9 15 15 C10.05 15 5.1 15 0 15 C0 10.05 0 5.1 0 0 Z " fill="#FFFFFF" transform="translate(255,375)"/>
<path d="M0 0 C4.95 0 9.9 0 15 0 C15 4.95 15 9.9 15 15 C10.05 15 5.1 15 0 15 C0 10.05 0 5.1 0 0 Z " fill="#FFFFFF" transform="translate(75,375)"/>
<path d="M0 0 C4.95 0 9.9 0 15 0 C15 4.95 15 9.9 15 15 C10.05 15 5.1 15 0 15 C0 10.05 0 5.1 0 0 Z " fill="#EEEEEE" transform="translate(60,375)"/>
<path d="M0 0 C4.95 0 9.9 0 15 0 C15 4.95 15 9.9 15 15 C10.05 15 5.1 15 0 15 C0 10.05 0 5.1 0 0 Z " fill="#FFFFFF" transform="translate(45,375)"/>
<path d="M0 0 C4.95 0 9.9 0 15 0 C15 4.95 15 9.9 15 15 C10.05 15 5.1 15 0 15 C0 10.05 0 5.1 0 0 Z " fill="#EEEEEE" transform="translate(30,375)"/>
<path d="M0 0 C4.95 0 9.9 0 15 0 C15 4.95 15 9.9 15 15 C10.05 15 5.1 15 0 15 C0 10.05 0 5.1 0 0 Z " fill="#FFFFFF" transform="translate(15,375)"/>
<path d="M0 0 C4.95 0 9.9 0 15 0 C15 4.95 15 9.9 15 15 C10.05 15 5.1 15 0 15 C0 10.05 0 5.1 0 0 Z " fill="#EEEEEE" transform="translate(0,375)"/>
<path d="M0 0 C4.95 0 9.9 0 15 0 C15 4.95 15 9.9 15 15 C10.05 15 5.1 15 0 15 C0 10.05 0 5.1 0 0 Z " fill="#FFFFFF" transform="translate(330,360)"/>
<path d="M0 0 C4.95 0 9.9 0 15 0 C15 4.95 15 9.9 15 15 C10.05 15 5.1 15 0 15 C0 10.05 0 5.1 0 0 Z " fill="#EEEEEE" transform="translate(315,360)"/>
<path d="M0 0 C4.95 0 9.9 0 15 0 C15 4.95 15 9.9 15 15 C10.05 15 5.1 15 0 15 C0 10.05 0 5.1 0 0 Z " fill="#FFFFFF" transform="translate(300,360)"/>
<path d="M0 0 C4.95 0 9.9 0 15 0 C15 4.95 15 9.9 15 15 C10.05 15 5.1 15 0 15 C0 10.05 0 5.1 0 0 Z " fill="#EEEEEE" transform="translate(285,360)"/>
<path d="M0 0 C4.95 0 9.9 0 15 0 C15 4.95 15 9.9 15 15 C10.05 15 5.1 15 0 15 C0 10.05 0 5.1 0 0 Z " fill="#FFFFFF" transform="translate(270,360)"/>
<path d="M0 0 C4.95 0 9.9 0 15 0 C15 4.95 15 9.9 15 15 C10.05 15 5.1 15 0 15 C0 10.05 0 5.1 0 0 Z " fill="#FFFFFF" transform="translate(60,360)"/>
<path d="M0 0 C4.95 0 9.9 0 15 0 C15 4.95 15 9.9 15 15 C10.05 15 5.1 15 0 15 C0 10.05 0 5.1 0 0 Z " fill="#EEEEEE" transform="translate(45,360)"/>
<path d="M0 0 C4.95 0 9.9 0 15 0 C15 4.95 15 9.9 15 15 C10.05 15 5.1 15 0 15 C0 10.05 0 5.1 0 0 Z " fill="#FFFFFF" transform="translate(30,360)"/>
<path d="M0 0 C4.95 0 9.9 0 15 0 C15 4.95 15 9.9 15 15 C10.05 15 5.1 15 0 15 C0 10.05 0 5.1 0 0 Z " fill="#EEEEEE" transform="translate(15,360)"/>
<path d="M0 0 C4.95 0 9.9 0 15 0 C15 4.95 15 9.9 15 15 C10.05 15 5.1 15 0 15 C0 10.05 0 5.1 0 0 Z " fill="#FFFFFF" transform="translate(0,360)"/>
<path d="M0 0 C4.95 0 9.9 0 15 0 C15 4.95 15 9.9 15 15 C10.05 15 5.1 15 0 15 C0 10.05 0 5.1 0 0 Z " fill="#EEEEEE" transform="translate(330,345)"/>
<path d="M0 0 C4.95 0 9.9 0 15 0 C15 4.95 15 9.9 15 15 C10.05 15 5.1 15 0 15 C0 10.05 0 5.1 0 0 Z " fill="#FFFFFF" transform="translate(315,345)"/>
<path d="M0 0 C4.95 0 9.9 0 15 0 C15 4.95 15 9.9 15 15 C10.05 15 5.1 15 0 15 C0 10.05 0 5.1 0 0 Z " fill="#EEEEEE" transform="translate(300,345)"/>
<path d="M0 0 C4.95 0 9.9 0 15 0 C15 4.95 15 9.9 15 15 C10.05 15 5.1 15 0 15 C0 10.05 0 5.1 0 0 Z " fill="#FFFFFF" transform="translate(285,345)"/>
<path d="M0 0 C4.95 0 9.9 0 15 0 C15 4.95 15 9.9 15 15 C10.05 15 5.1 15 0 15 C0 10.05 0 5.1 0 0 Z " fill="#EEEEEE" transform="translate(60,345)"/>
<path d="M0 0 C4.95 0 9.9 0 15 0 C15 4.95 15 9.9 15 15 C10.05 15 5.1 15 0 15 C0 10.05 0 5.1 0 0 Z " fill="#FFFFFF" transform="translate(45,345)"/>
<path d="M0 0 C4.95 0 9.9 0 15 0 C15 4.95 15 9.9 15 15 C10.05 15 5.1 15 0 15 C0 10.05 0 5.1 0 0 Z " fill="#EEEEEE" transform="translate(30,345)"/>
<path d="M0 0 C4.95 0 9.9 0 15 0 C15 4.95 15 9.9 15 15 C10.05 15 5.1 15 0 15 C0 10.05 0 5.1 0 0 Z " fill="#FFFFFF" transform="translate(15,345)"/>
<path d="M0 0 C4.95 0 9.9 0 15 0 C15 4.95 15 9.9 15 15 C10.05 15 5.1 15 0 15 C0 10.05 0 5.1 0 0 Z " fill="#EEEEEE" transform="translate(0,345)"/>
<path d="M0 0 C4.95 0 9.9 0 15 0 C15 4.95 15 9.9 15 15 C10.05 15 5.1 15 0 15 C0 10.05 0 5.1 0 0 Z " fill="#FFFFFF" transform="translate(330,330)"/>
<path d="M0 0 C4.95 0 9.9 0 15 0 C15 4.95 15 9.9 15 15 C10.05 15 5.1 15 0 15 C0 10.05 0 5.1 0 0 Z " fill="#EEEEEE" transform="translate(315,330)"/>
<path d="M0 0 C4.95 0 9.9 0 15 0 C15 4.95 15 9.9 15 15 C10.05 15 5.1 15 0 15 C0 10.05 0 5.1 0 0 Z " fill="#FFFFFF" transform="translate(300,330)"/>
<path d="M0 0 C4.95 0 9.9 0 15 0 C15 4.95 15 9.9 15 15 C10.05 15 5.1 15 0 15 C0 10.05 0 5.1 0 0 Z " fill="#EEEEEE" transform="translate(285,330)"/>
<path d="M0 0 C4.95 0 9.9 0 15 0 C15 4.95 15 9.9 15 15 C10.05 15 5.1 15 0 15 C0 10.05 0 5.1 0 0 Z " fill="#EEEEEE" transform="translate(45,330)"/>
<path d="M0 0 C4.95 0 9.9 0 15 0 C15 4.95 15 9.9 15 15 C10.05 15 5.1 15 0 15 C0 10.05 0 5.1 0 0 Z " fill="#FFFFFF" transform="translate(30,330)"/>
<path d="M0 0 C4.95 0 9.9 0 15 0 C15 4.95 15 9.9 15 15 C10.05 15 5.1 15 0 15 C0 10.05 0 5.1 0 0 Z " fill="#EEEEEE" transform="translate(15,330)"/>
<path d="M0 0 C4.95 0 9.9 0 15 0 C15 4.95 15 9.9 15 15 C10.05 15 5.1 15 0 15 C0 10.05 0 5.1 0 0 Z " fill="#FFFFFF" transform="translate(0,330)"/>
<path d="M0 0 C4.95 0 9.9 0 15 0 C15 4.95 15 9.9 15 15 C10.05 15 5.1 15 0 15 C0 10.05 0 5.1 0 0 Z " fill="#EEEEEE" transform="translate(330,315)"/>
<path d="M0 0 C4.95 0 9.9 0 15 0 C15 4.95 15 9.9 15 15 C10.05 15 5.1 15 0 15 C0 10.05 0 5.1 0 0 Z " fill="#FFFFFF" transform="translate(315,315)"/>
<path d="M0 0 C4.95 0 9.9 0 15 0 C15 4.95 15 9.9 15 15 C10.05 15 5.1 15 0 15 C0 10.05 0 5.1 0 0 Z " fill="#EEEEEE" transform="translate(300,315)"/>
<path d="M0 0 C4.95 0 9.9 0 15 0 C15 4.95 15 9.9 15 15 C10.05 15 5.1 15 0 15 C0 10.05 0 5.1 0 0 Z " fill="#EEEEEE" transform="translate(30,315)"/>
<path d="M0 0 C4.95 0 9.9 0 15 0 C15 4.95 15 9.9 15 15 C10.05 15 5.1 15 0 15 C0 10.05 0 5.1 0 0 Z " fill="#FFFFFF" transform="translate(15,315)"/>
<path d="M0 0 C4.95 0 9.9 0 15 0 C15 4.95 15 9.9 15 15 C10.05 15 5.1 15 0 15 C0 10.05 0 5.1 0 0 Z " fill="#EEEEEE" transform="translate(0,315)"/>
<path d="M0 0 C4.95 0 9.9 0 15 0 C15 4.95 15 9.9 15 15 C10.05 15 5.1 15 0 15 C0 10.05 0 5.1 0 0 Z " fill="#FFFFFF" transform="translate(330,300)"/>
<path d="M0 0 C4.95 0 9.9 0 15 0 C15 4.95 15 9.9 15 15 C10.05 15 5.1 15 0 15 C0 10.05 0 5.1 0 0 Z " fill="#EEEEEE" transform="translate(315,300)"/>
<path d="M0 0 C4.95 0 9.9 0 15 0 C15 4.95 15 9.9 15 15 C10.05 15 5.1 15 0 15 C0 10.05 0 5.1 0 0 Z " fill="#FFFFFF" transform="translate(300,300)"/>
<path d="M0 0 C4.95 0 9.9 0 15 0 C15 4.95 15 9.9 15 15 C10.05 15 5.1 15 0 15 C0 10.05 0 5.1 0 0 Z " fill="#FFFFFF" transform="translate(30,300)"/>
<path d="M0 0 C4.95 0 9.9 0 15 0 C15 4.95 15 9.9 15 15 C10.05 15 5.1 15 0 15 C0 10.05 0 5.1 0 0 Z " fill="#EEEEEE" transform="translate(15,300)"/>
<path d="M0 0 C4.95 0 9.9 0 15 0 C15 4.95 15 9.9 15 15 C10.05 15 5.1 15 0 15 C0 10.05 0 5.1 0 0 Z " fill="#FFFFFF" transform="translate(0,300)"/>
<path d="M0 0 C4.95 0 9.9 0 15 0 C15 4.95 15 9.9 15 15 C10.05 15 5.1 15 0 15 C0 10.05 0 5.1 0 0 Z " fill="#EEEEEE" transform="translate(330,285)"/>
<path d="M0 0 C4.95 0 9.9 0 15 0 C15 4.95 15 9.9 15 15 C10.05 15 5.1 15 0 15 C0 10.05 0 5.1 0 0 Z " fill="#FFFFFF" transform="translate(315,285)"/>
<path d="M0 0 C4.95 0 9.9 0 15 0 C15 4.95 15 9.9 15 15 C10.05 15 5.1 15 0 15 C0 10.05 0 5.1 0 0 Z " fill="#EEEEEE" transform="translate(300,285)"/>
<path d="M0 0 C4.95 0 9.9 0 15 0 C15 4.95 15 9.9 15 15 C10.05 15 5.1 15 0 15 C0 10.05 0 5.1 0 0 Z " fill="#EEEEEE" transform="translate(30,285)"/>
<path d="M0 0 C4.95 0 9.9 0 15 0 C15 4.95 15 9.9 15 15 C10.05 15 5.1 15 0 15 C0 10.05 0 5.1 0 0 Z " fill="#FFFFFF" transform="translate(15,285)"/>
<path d="M0 0 C4.95 0 9.9 0 15 0 C15 4.95 15 9.9 15 15 C10.05 15 5.1 15 0 15 C0 10.05 0 5.1 0 0 Z " fill="#EEEEEE" transform="translate(0,285)"/>
<path d="M0 0 C4.95 0 9.9 0 15 0 C15 4.95 15 9.9 15 15 C10.05 15 5.1 15 0 15 C0 10.05 0 5.1 0 0 Z " fill="#FFFFFF" transform="translate(330,270)"/>
<path d="M0 0 C4.95 0 9.9 0 15 0 C15 4.95 15 9.9 15 15 C10.05 15 5.1 15 0 15 C0 10.05 0 5.1 0 0 Z " fill="#EEEEEE" transform="translate(315,270)"/>
<path d="M0 0 C4.95 0 9.9 0 15 0 C15 4.95 15 9.9 15 15 C10.05 15 5.1 15 0 15 C0 10.05 0 5.1 0 0 Z " fill="#EEEEEE" transform="translate(15,270)"/>
<path d="M0 0 C4.95 0 9.9 0 15 0 C15 4.95 15 9.9 15 15 C10.05 15 5.1 15 0 15 C0 10.05 0 5.1 0 0 Z " fill="#FFFFFF" transform="translate(0,270)"/>
<path d="M0 0 C4.95 0 9.9 0 15 0 C15 4.95 15 9.9 15 15 C10.05 15 5.1 15 0 15 C0 10.05 0 5.1 0 0 Z " fill="#EEEEEE" transform="translate(330,255)"/>
<path d="M0 0 C4.95 0 9.9 0 15 0 C15 4.95 15 9.9 15 15 C10.05 15 5.1 15 0 15 C0 10.05 0 5.1 0 0 Z " fill="#FFFFFF" transform="translate(315,255)"/>
<path d="M0 0 C4.95 0 9.9 0 15 0 C15 4.95 15 9.9 15 15 C10.05 15 5.1 15 0 15 C0 10.05 0 5.1 0 0 Z " fill="#FFFFFF" transform="translate(15,255)"/>
<path d="M0 0 C4.95 0 9.9 0 15 0 C15 4.95 15 9.9 15 15 C10.05 15 5.1 15 0 15 C0 10.05 0 5.1 0 0 Z " fill="#EEEEEE" transform="translate(0,255)"/>
<path d="M0 0 C4.95 0 9.9 0 15 0 C15 4.95 15 9.9 15 15 C10.05 15 5.1 15 0 15 C0 10.05 0 5.1 0 0 Z " fill="#FFFFFF" transform="translate(330,240)"/>
<path d="M0 0 C4.95 0 9.9 0 15 0 C15 4.95 15 9.9 15 15 C10.05 15 5.1 15 0 15 C0 10.05 0 5.1 0 0 Z " fill="#EEEEEE" transform="translate(15,240)"/>
<path d="M0 0 C4.95 0 9.9 0 15 0 C15 4.95 15 9.9 15 15 C10.05 15 5.1 15 0 15 C0 10.05 0 5.1 0 0 Z " fill="#FFFFFF" transform="translate(0,240)"/>
<path d="M0 0 C4.95 0 9.9 0 15 0 C15 4.95 15 9.9 15 15 C10.05 15 5.1 15 0 15 C0 10.05 0 5.1 0 0 Z " fill="#EEEEEE" transform="translate(0,225)"/>
<path d="M0 0 C4.95 0 9.9 0 15 0 C15 4.95 15 9.9 15 15 C10.05 15 5.1 15 0 15 C0 10.05 0 5.1 0 0 Z " fill="#FFFFFF" transform="translate(0,210)"/>
<path d="M0 0 C4.95 0 9.9 0 15 0 C15 4.95 15 9.9 15 15 C10.05 15 5.1 15 0 15 C0 10.05 0 5.1 0 0 Z " fill="#EEEEEE" transform="translate(330,195)"/>
<path d="M0 0 C4.95 0 9.9 0 15 0 C15 4.95 15 9.9 15 15 C10.05 15 5.1 15 0 15 C0 10.05 0 5.1 0 0 Z " fill="#EEEEEE" transform="translate(0,195)"/>
<path d="M0 0 C4.95 0 9.9 0 15 0 C15 4.95 15 9.9 15 15 C10.05 15 5.1 15 0 15 C0 10.05 0 5.1 0 0 Z " fill="#EEEEEE" transform="translate(0,75)"/>
<path d="M0 0 C4.95 0 9.9 0 15 0 C15 4.95 15 9.9 15 15 C10.05 15 5.1 15 0 15 C0 10.05 0 5.1 0 0 Z " fill="#FFFFFF" transform="translate(330,60)"/>
<path d="M0 0 C4.95 0 9.9 0 15 0 C15 4.95 15 9.9 15 15 C10.05 15 5.1 15 0 15 C0 10.05 0 5.1 0 0 Z " fill="#EEEEEE" transform="translate(315,60)"/>
<path d="M0 0 C4.95 0 9.9 0 15 0 C15 4.95 15 9.9 15 15 C10.05 15 5.1 15 0 15 C0 10.05 0 5.1 0 0 Z " fill="#EEEEEE" transform="translate(15,60)"/>
<path d="M0 0 C4.95 0 9.9 0 15 0 C15 4.95 15 9.9 15 15 C10.05 15 5.1 15 0 15 C0 10.05 0 5.1 0 0 Z " fill="#FFFFFF" transform="translate(0,60)"/>
<path d="M0 0 C4.95 0 9.9 0 15 0 C15 4.95 15 9.9 15 15 C10.05 15 5.1 15 0 15 C0 10.05 0 5.1 0 0 Z " fill="#FFFFFF" transform="translate(315,45)"/>
<path d="M0 0 C4.95 0 9.9 0 15 0 C15 4.95 15 9.9 15 15 C10.05 15 5.1 15 0 15 C0 10.05 0 5.1 0 0 Z " fill="#EEEEEE" transform="translate(300,45)"/>
<path d="M0 0 C4.95 0 9.9 0 15 0 C15 4.95 15 9.9 15 15 C10.05 15 5.1 15 0 15 C0 10.05 0 5.1 0 0 Z " fill="#EEEEEE" transform="translate(30,45)"/>
<path d="M0 0 C4.95 0 9.9 0 15 0 C15 4.95 15 9.9 15 15 C10.05 15 5.1 15 0 15 C0 10.05 0 5.1 0 0 Z " fill="#FFFFFF" transform="translate(15,45)"/>
<path d="M0 0 C4.95 0 9.9 0 15 0 C15 4.95 15 9.9 15 15 C10.05 15 5.1 15 0 15 C0 10.05 0 5.1 0 0 Z " fill="#EEEEEE" transform="translate(0,45)"/>
<path d="M0 0 C4.95 0 9.9 0 15 0 C15 4.95 15 9.9 15 15 C10.05 15 5.1 15 0 15 C0 10.05 0 5.1 0 0 Z " fill="#EEEEEE" transform="translate(315,30)"/>
<path d="M0 0 C4.95 0 9.9 0 15 0 C15 4.95 15 9.9 15 15 C10.05 15 5.1 15 0 15 C0 10.05 0 5.1 0 0 Z " fill="#EEEEEE" transform="translate(285,30)"/>
<path d="M0 0 C4.95 0 9.9 0 15 0 C15 4.95 15 9.9 15 15 C10.05 15 5.1 15 0 15 C0 10.05 0 5.1 0 0 Z " fill="#EEEEEE" transform="translate(45,30)"/>
<path d="M0 0 C4.95 0 9.9 0 15 0 C15 4.95 15 9.9 15 15 C10.05 15 5.1 15 0 15 C0 10.05 0 5.1 0 0 Z " fill="#FFFFFF" transform="translate(30,30)"/>
<path d="M0 0 C4.95 0 9.9 0 15 0 C15 4.95 15 9.9 15 15 C10.05 15 5.1 15 0 15 C0 10.05 0 5.1 0 0 Z " fill="#EEEEEE" transform="translate(15,30)"/>
<path d="M0 0 C4.95 0 9.9 0 15 0 C15 4.95 15 9.9 15 15 C10.05 15 5.1 15 0 15 C0 10.05 0 5.1 0 0 Z " fill="#FFFFFF" transform="translate(0,30)"/>
<path d="M0 0 C4.95 0 9.9 0 15 0 C15 4.95 15 9.9 15 15 C10.05 15 5.1 15 0 15 C0 10.05 0 5.1 0 0 Z " fill="#EEEEEE" transform="translate(330,15)"/>
<path d="M0 0 C4.95 0 9.9 0 15 0 C15 4.95 15 9.9 15 15 C10.05 15 5.1 15 0 15 C0 10.05 0 5.1 0 0 Z " fill="#EEEEEE" transform="translate(300,15)"/>
<path d="M0 0 C4.95 0 9.9 0 15 0 C15 4.95 15 9.9 15 15 C10.05 15 5.1 15 0 15 C0 10.05 0 5.1 0 0 Z " fill="#EEEEEE" transform="translate(270,15)"/>
<path d="M0 0 C4.95 0 9.9 0 15 0 C15 4.95 15 9.9 15 15 C10.05 15 5.1 15 0 15 C0 10.05 0 5.1 0 0 Z " fill="#EEEEEE" transform="translate(60,15)"/>
<path d="M0 0 C4.95 0 9.9 0 15 0 C15 4.95 15 9.9 15 15 C10.05 15 5.1 15 0 15 C0 10.05 0 5.1 0 0 Z " fill="#FFFFFF" transform="translate(45,15)"/>
<path d="M0 0 C4.95 0 9.9 0 15 0 C15 4.95 15 9.9 15 15 C10.05 15 5.1 15 0 15 C0 10.05 0 5.1 0 0 Z " fill="#EEEEEE" transform="translate(30,15)"/>
<path d="M0 0 C4.95 0 9.9 0 15 0 C15 4.95 15 9.9 15 15 C10.05 15 5.1 15 0 15 C0 10.05 0 5.1 0 0 Z " fill="#FFFFFF" transform="translate(15,15)"/>
<path d="M0 0 C4.95 0 9.9 0 15 0 C15 4.95 15 9.9 15 15 C10.05 15 5.1 15 0 15 C0 10.05 0 5.1 0 0 Z " fill="#EEEEEE" transform="translate(0,15)"/>
<path d="M0 0 C4.95 0 9.9 0 15 0 C15 4.95 15 9.9 15 15 C10.05 15 5.1 15 0 15 C0 10.05 0 5.1 0 0 Z " fill="#EEEEEE" transform="translate(315,0)"/>
<path d="M0 0 C4.95 0 9.9 0 15 0 C15 4.95 15 9.9 15 15 C10.05 15 5.1 15 0 15 C0 10.05 0 5.1 0 0 Z " fill="#EEEEEE" transform="translate(285,0)"/>
<path d="M0 0 C4.95 0 9.9 0 15 0 C15 4.95 15 9.9 15 15 C10.05 15 5.1 15 0 15 C0 10.05 0 5.1 0 0 Z " fill="#EEEEEE" transform="translate(255,0)"/>
<path d="M0 0 C4.95 0 9.9 0 15 0 C15 4.95 15 9.9 15 15 C10.05 15 5.1 15 0 15 C0 10.05 0 5.1 0 0 Z " fill="#EEEEEE" transform="translate(225,0)"/>
<path d="M0 0 C4.95 0 9.9 0 15 0 C15 4.95 15 9.9 15 15 C10.05 15 5.1 15 0 15 C0 10.05 0 5.1 0 0 Z " fill="#EEEEEE" transform="translate(105,0)"/>
<path d="M0 0 C4.95 0 9.9 0 15 0 C15 4.95 15 9.9 15 15 C10.05 15 5.1 15 0 15 C0 10.05 0 5.1 0 0 Z " fill="#EEEEEE" transform="translate(75,0)"/>
<path d="M0 0 C4.95 0 9.9 0 15 0 C15 4.95 15 9.9 15 15 C10.05 15 5.1 15 0 15 C0 10.05 0 5.1 0 0 Z " fill="#FFFFFF" transform="translate(60,0)"/>
<path d="M0 0 C4.95 0 9.9 0 15 0 C15 4.95 15 9.9 15 15 C10.05 15 5.1 15 0 15 C0 10.05 0 5.1 0 0 Z " fill="#EEEEEE" transform="translate(45,0)"/>
<path d="M0 0 C4.95 0 9.9 0 15 0 C15 4.95 15 9.9 15 15 C10.05 15 5.1 15 0 15 C0 10.05 0 5.1 0 0 Z " fill="#FFFFFF" transform="translate(30,0)"/>
<path d="M0 0 C4.95 0 9.9 0 15 0 C15 4.95 15 9.9 15 15 C10.05 15 5.1 15 0 15 C0 10.05 0 5.1 0 0 Z " fill="#FFFFFF" transform="translate(0,0)"/>
<path d="M0 0 C3.61328125 0.03255208 7.2265625 0.06510417 10.83984375 0.09765625 C10.83984375 5.04765625 10.83984375 9.99765625 10.83984375 15.09765625 C5.88984375 15.09765625 0.93984375 15.09765625 -4.16015625 15.09765625 C-4.2578125 4.2578125 -4.2578125 4.2578125 -4.16015625 1.09765625 C-3.16015625 0.09765625 -3.16015625 0.09765625 0 0 Z " fill="#EEEEEE" transform="translate(319.16015625,239.90234375)"/>
<path d="M0 0 C3.61328125 0.03255208 7.2265625 0.06510417 10.83984375 0.09765625 C10.83984375 5.04765625 10.83984375 9.99765625 10.83984375 15.09765625 C5.88984375 15.09765625 0.93984375 15.09765625 -4.16015625 15.09765625 C-4.2578125 4.2578125 -4.2578125 4.2578125 -4.16015625 1.09765625 C-3.16015625 0.09765625 -3.16015625 0.09765625 0 0 Z " fill="#EEEEEE" transform="translate(334.16015625,224.90234375)"/>
<path d="M0 0 C4.98046875 0.09765625 4.98046875 0.09765625 9.9609375 0.1953125 C9.9609375 5.1453125 9.9609375 10.0953125 9.9609375 15.1953125 C5.0109375 15.1953125 0.0609375 15.1953125 -5.0390625 15.1953125 C-5.234375 5.234375 -5.234375 5.234375 -5.0390625 2.1953125 C-3.0390625 0.1953125 -3.0390625 0.1953125 0 0 Z " fill="#EEEEEE" transform="translate(230.0390625,389.8046875)"/>
<path d="M0 0 C0 1.98 0 3.96 0 6 C-3.22481516 7.01521959 -5.66437919 6.93680749 -9 6.5 C-14.34474965 5.92374667 -19.33337762 6.24079336 -24.6640625 6.84375 C-25.43492187 6.8953125 -26.20578125 6.946875 -27 7 C-28 6 -28 6 -28.0625 2.9375 C-28.041875 1.968125 -28.02125 0.99875 -28 0 C-19.10597778 -4.04273737 -8.90784007 -3.93938776 0 0 Z " fill="#637C8B" transform="translate(188,358)"/>
<path d="M0 0 C4.29 0 8.58 0 13 0 C13 4.95 13 9.9 13 15 C8.05 15 3.1 15 -2 15 C-2.19392201 9.47322267 -1.7479503 5.24385089 0 0 Z " fill="#EEEEEE" transform="translate(272,345)"/>
<path d="M0 0 C10.13528336 -0.60329068 10.13528336 -0.60329068 13.6875 1.875 C15.59214658 6.4098728 15.26134419 10.0997965 15 15 C10.05 15 5.1 15 0 15 C0 10.05 0 5.1 0 0 Z " fill="#EEEEEE" transform="translate(120,405)"/>
<path d="M0 0 C8.87323944 -0.47323944 8.87323944 -0.47323944 13.125 1.3125 C16.1743012 5.68316505 15.31143327 9.767921 15 15 C10.05 15 5.1 15 0 15 C0 10.05 0 5.1 0 0 Z " fill="#EEEEEE" transform="translate(135,420)"/>
<path d="M0 0 C4.79295077 -0.29048186 8.04371012 -0.35231732 12.5625 1.3125 C15.46333241 4.51085368 15.35880813 5.55630443 15.375 9.75 C15.25125 11.4825 15.1275 13.215 15 15 C10.05 15 5.1 15 0 15 C0 10.05 0 5.1 0 0 Z " fill="#EEEEEE" transform="translate(90,375)"/>
<path d="M0 0 C0 4.95 0 9.9 0 15 C-4.95 15 -9.9 15 -15 15 C-15 11.7 -15 8.4 -15 5 C-6.75 0 -6.75 0 0 0 Z " fill="#EEEEEE" transform="translate(255,375)"/>
<path d="M0 0 C0 4.95 0 9.9 0 15 C-4.95 15 -9.9 15 -15 15 C-15.4986877 11.84164454 -15.77542494 10.03312478 -15 7 C-10.41023311 1.65027171 -7.1009671 0 0 0 Z " fill="#EEEEEE" transform="translate(210,420)"/>
<path d="M0 0 C1.175625 0.185625 2.35125 0.37125 3.5625 0.5625 C3.5625 5.5125 3.5625 10.4625 3.5625 15.5625 C-1.3875 15.5625 -6.3375 15.5625 -11.4375 15.5625 C-11.4375 8.85371791 -10.54860471 7.26486096 -6.52734375 2.35546875 C-4.15767749 0.32242798 -3.07860619 -0.01646313 0 0 Z " fill="#EEEEEE" transform="translate(221.4375,404.4375)"/>
<path d="M0 0 C3.96 0 7.92 0 12 0 C12.33 4.95 12.66 9.9 13 15 C8.71 15 4.42 15 0 15 C0 10.05 0 5.1 0 0 Z " fill="#EEEEEE" transform="translate(30,255)"/>
<path d="M0 0 C7 0 7 0 9.43359375 1.7578125 C10.42552734 2.92957031 10.42552734 2.92957031 11.4375 4.125 C12.11683594 4.89070313 12.79617187 5.65640625 13.49609375 6.4453125 C15 9 15 9 15 15 C10.05 15 5.1 15 0 15 C0 10.05 0 5.1 0 0 Z " fill="#EEEEEE" transform="translate(75,360)"/>
<path d="M0 0 C4.95 0 9.9 0 15 0 C15 3.96 15 7.92 15 12 C10.05 12 5.1 12 0 12 C0 8.04 0 4.08 0 0 Z " fill="#EEEEEE" transform="translate(300,435)"/>
<path d="M0 0 C4.95 0 9.9 0 15 0 C15 3.96 15 7.92 15 12 C10.05 12 5.1 12 0 12 C0 8.04 0 4.08 0 0 Z " fill="#EEEEEE" transform="translate(270,435)"/>
<path d="M0 0 C4.95 0 9.9 0 15 0 C15 3.96 15 7.92 15 12 C10.05 12 5.1 12 0 12 C0 8.04 0 4.08 0 0 Z " fill="#EEEEEE" transform="translate(240,435)"/>
<path d="M0 0 C4.95 0 9.9 0 15 0 C15 3.96 15 7.92 15 12 C10.05 12 5.1 12 0 12 C0 8.04 0 4.08 0 0 Z " fill="#EEEEEE" transform="translate(210,435)"/>
<path d="M0 0 C4.95 0 9.9 0 15 0 C15 3.96 15 7.92 15 12 C10.05 12 5.1 12 0 12 C0 8.04 0 4.08 0 0 Z " fill="#EEEEEE" transform="translate(120,435)"/>
<path d="M0 0 C4.95 0 9.9 0 15 0 C15 3.96 15 7.92 15 12 C10.05 12 5.1 12 0 12 C0 8.04 0 4.08 0 0 Z " fill="#FFFFFF" transform="translate(105,435)"/>
<path d="M0 0 C4.95 0 9.9 0 15 0 C15 3.96 15 7.92 15 12 C10.05 12 5.1 12 0 12 C0 8.04 0 4.08 0 0 Z " fill="#EEEEEE" transform="translate(90,435)"/>
<path d="M0 0 C4.95 0 9.9 0 15 0 C15 3.96 15 7.92 15 12 C10.05 12 5.1 12 0 12 C0 8.04 0 4.08 0 0 Z " fill="#FFFFFF" transform="translate(75,435)"/>
<path d="M0 0 C4.95 0 9.9 0 15 0 C15 3.96 15 7.92 15 12 C10.05 12 5.1 12 0 12 C0 8.04 0 4.08 0 0 Z " fill="#EEEEEE" transform="translate(60,435)"/>
<path d="M0 0 C4.95 0 9.9 0 15 0 C15 3.96 15 7.92 15 12 C10.05 12 5.1 12 0 12 C0 8.04 0 4.08 0 0 Z " fill="#FFFFFF" transform="translate(45,435)"/>
<path d="M0 0 C4.95 0 9.9 0 15 0 C15 3.96 15 7.92 15 12 C10.05 12 5.1 12 0 12 C0 8.04 0 4.08 0 0 Z " fill="#EEEEEE" transform="translate(30,435)"/>
<path d="M0 0 C4.95 0 9.9 0 15 0 C15 3.96 15 7.92 15 12 C10.05 12 5.1 12 0 12 C0 8.04 0 4.08 0 0 Z " fill="#FFFFFF" transform="translate(15,435)"/>
<path d="M0 0 C4.95 0 9.9 0 15 0 C15 3.96 15 7.92 15 12 C10.05 12 5.1 12 0 12 C0 8.04 0 4.08 0 0 Z " fill="#EEEEEE" transform="translate(0,435)"/>
<path d="M0 0 C4.95 0 9.9 0 15 0 C15 3.3 15 6.6 15 10 C10.17673789 12.25085565 5.20077015 13.02918957 0 14 C0 9.38 0 4.76 0 0 Z " fill="#EEEEEE" transform="translate(135,0)"/>
<path d="M0 0 C4.95 0 9.9 0 15 0 C15 4.29 15 8.58 15 13 C4.5 11.25 4.5 11.25 0 9 C0 6.03 0 3.06 0 0 Z " fill="#EEEEEE" transform="translate(195,0)"/>
<path d="M0 0 C3.3 0 6.6 0 10 0 C10.13277344 0.83144531 10.26554687 1.66289062 10.40234375 2.51953125 C10.57894531 3.60621094 10.75554688 4.69289063 10.9375 5.8125 C11.11152344 6.89144531 11.28554688 7.97039062 11.46484375 9.08203125 C11.93871921 12.04933356 11.93871921 12.04933356 13 15 C8.71 15 4.42 15 0 15 C0 10.05 0 5.1 0 0 Z " fill="#EEEEEE" transform="translate(45,300)"/>
<path d="M0 0 C8.9288717 -0.83336136 8.9288717 -0.83336136 11.77734375 1.3828125 C14.69076928 5.2842693 15 6.85573694 15 12 C10.05 12 5.1 12 0 12 C0 8.04 0 4.08 0 0 Z " fill="#EEEEEE" transform="translate(150,435)"/>
<path d="M0 0 C1.32 0 2.64 0 4 0 C4 4.95 4 9.9 4 15 C-0.95 15 -5.9 15 -11 15 C-11 11 -11 11 -9.35546875 9.21875 C-8.64003906 8.6515625 -7.92460937 8.084375 -7.1875 7.5 C-4.90873744 5.67366935 -3.13834624 4.20305081 -1.48828125 1.78125 C-0.75158203 0.89953125 -0.75158203 0.89953125 0 0 Z " fill="#EEEEEE" transform="translate(266,360)"/>
<path d="M0 0 C1.98 0 3.96 0 6 0 C7.17176518 2.12232979 8.33754785 4.24757791 9.5 6.375 C9.83386719 6.97828125 10.16773438 7.5815625 10.51171875 8.203125 C13 12.7734375 13 12.7734375 13 15 C8.71 15 4.42 15 0 15 C0 10.05 0 5.1 0 0 Z " fill="#EEEEEE" transform="translate(0,165)"/>
<path d="M0 0 C4.29 0 8.58 0 13 0 C9.535 7.425 9.535 7.425 6 15 C4.02 15 2.04 15 0 15 C0 10.05 0 5.1 0 0 Z " fill="#EEEEEE" transform="translate(0,105)"/>
<path d="M0 0 C4.95 0 9.9 0 15 0 C15 1.98 15 3.96 15 6 C13.06374902 6.98163422 11.12595461 7.96022454 9.1875 8.9375 C8.10855469 9.48277344 7.02960938 10.02804688 5.91796875 10.58984375 C3 12 3 12 0 13 C0 8.71 0 4.42 0 0 Z " fill="#EEEEEE" transform="translate(90,15)"/>
<path d="M0 0 C2.05078125 0.03255208 4.1015625 0.06510417 6.15234375 0.09765625 C6.15234375 5.04765625 6.15234375 9.99765625 6.15234375 15.09765625 C2.85234375 15.09765625 -0.44765625 15.09765625 -3.84765625 15.09765625 C-3.70739342 12.78481169 -3.56030067 10.47238034 -3.41015625 8.16015625 C-3.32894531 6.87238281 -3.24773437 5.58460938 -3.1640625 4.2578125 C-2.75232007 0.14547146 -2.75232007 0.14547146 0 0 Z " fill="#EEEEEE" transform="translate(308.84765625,254.90234375)"/>
<path d="M0 0 C2.31 0 4.62 0 7 0 C7 3.96 7 7.92 7 12 C2.05 12 -2.9 12 -8 12 C-6.8259221 7.30368841 -5.6667346 6.86184164 -2 4 C-0.68834743 1.88339573 -0.68834743 1.88339573 0 0 Z " fill="#EEEEEE" transform="translate(188,435)"/>
<path d="M0 0 C2.13014263 1.09507332 4.2537618 2.20041626 6.375 3.3125 C6.97828125 3.62123047 7.5815625 3.92996094 8.203125 4.24804688 C11.38258325 5.92609428 12.96537552 6.94806328 15 10 C15 10.99 15 11.98 15 13 C10.05 13 5.1 13 0 13 C0 8.71 0 4.42 0 0 Z " fill="#EEEEEE" transform="translate(60,317)"/>
<path d="M0 0 C2.31 0 4.62 0 7 0 C7 4.95 7 9.9 7 15 C3.7 15 0.4 15 -3 15 C-2.690625 14.38125 -2.38125 13.7625 -2.0625 13.125 C-0.5960722 8.81197706 -0.33380974 4.5240004 0 0 Z " fill="#EEEEEE" transform="translate(293,300)"/>
<path d="M0 0 C4.95 0 9.9 0 15 0 C15 3.63 15 7.26 15 11 C11.42871914 9.57148766 8.10247728 8.10525515 4.6875 6.375 C3.80449219 5.92898437 2.92148438 5.48296875 2.01171875 5.0234375 C1.34785156 4.68570312 0.68398437 4.34796875 0 4 C0 2.68 0 1.36 0 0 Z " fill="#EEEEEE" transform="translate(240,15)"/>
<path d="M0 0 C0.99 0 1.98 0 3 0 C3 4.95 3 9.9 3 15 C-0.3 15 -3.6 15 -7 15 C-5.63408831 11.45756548 -4.09068516 8.07372071 -2.375 4.6875 C-1.70597656 3.36298828 -1.70597656 3.36298828 -1.0234375 2.01171875 C-0.68570312 1.34785156 -0.34796875 0.68398437 0 0 Z " fill="#EEEEEE" transform="translate(342,165)"/>
<path d="M0 0 C4.29 0 8.58 0 13 0 C12.01 1.485 12.01 1.485 11 3 C10.34 3 9.68 3 9 3 C8.73316406 3.57234375 8.46632813 4.1446875 8.19140625 4.734375 C6.95103193 7.09311961 5.54054336 9.123112 3.9375 11.25 C3.41027344 11.95640625 2.88304688 12.6628125 2.33984375 13.390625 C1.89769531 13.92171875 1.45554687 14.4528125 1 15 C0.67 15 0.34 15 0 15 C0 10.05 0 5.1 0 0 Z " fill="#EEEEEE" transform="translate(75,30)"/>
<path d="M0 0 C3.3 0 6.6 0 10 0 C10 4.95 10 9.9 10 15 C9.01 15 8.02 15 7 15 C4.69 10.05 2.38 5.1 0 0 Z " fill="#EEEEEE" transform="translate(335,105)"/>
<path d="M0 0 C0 3.63 0 7.26 0 11 C-3.96 11 -7.92 11 -12 11 C-11.67 9.35 -11.34 7.7 -11 6 C-10.34 6 -9.68 6 -9 6 C-9 5.34 -9 4.68 -9 4 C-7.68872739 3.3309224 -6.3759455 2.66480194 -5.0625 2 C-4.33160156 1.62875 -3.60070312 1.2575 -2.84765625 0.875 C-1 0 -1 0 0 0 Z " fill="#EEEEEE" transform="translate(285,319)"/>
<path d="M0 0 C0.99 0 1.98 0 3 0 C3 8.91 3 17.82 3 27 C2.01 27 1.02 27 0 27 C0 18.09 0 9.18 0 0 Z " fill="#EEEEEE" transform="translate(345,420)"/>
<path d="M0 0 C3.63 0 7.26 0 11 0 C10.05125 0.99 9.1025 1.98 8.125 3 C4.79126585 6.84480189 3.87140004 10.03301976 3 15 C2.01 15 1.02 15 0 15 C0 10.05 0 5.1 0 0 Z " fill="#EEEEEE" transform="translate(15,210)"/>
<path d="M0 0 C3.9252025 3.70090521 6.94580156 7.54959656 10 12 C6.7 12 3.4 12 0 12 C0 8.04 0 4.08 0 0 Z " fill="#EEEEEE" transform="translate(15,183)"/>
<path d="M0 0 C2.97 0 5.94 0 9 0 C9 0.66 9 1.32 9 2 C8.34 2 7.68 2 7 2 C6.773125 2.556875 6.54625 3.11375 6.3125 3.6875 C4.64103234 6.63246684 2.44723648 8.68156544 0 11 C0 7.37 0 3.74 0 0 Z " fill="#EEEEEE" transform="translate(15,90)"/>
<path d="M0 0 C3.3 0 6.6 0 10 0 C10 3.3 10 6.6 10 10 C9.01 9.34 8.02 8.68 7 8 C7 7.34 7 6.68 7 6 C6.34 6 5.68 6 5 6 C5 5.34 5 4.68 5 4 C4.34 4 3.68 4 3 4 C3 3.34 3 2.68 3 2 C2.01 1.67 1.02 1.34 0 1 C0 0.67 0 0.34 0 0 Z " fill="#EEEEEE" transform="translate(260,30)"/>
<path d="M0 0 C4.95 0 9.9 0 15 0 C15 0.99 15 1.98 15 3 C14.25234375 3.06058594 13.5046875 3.12117187 12.734375 3.18359375 C11.74953125 3.26738281 10.7646875 3.35117187 9.75 3.4375 C8.77546875 3.51871094 7.8009375 3.59992188 6.796875 3.68359375 C4.43538247 3.95074584 2.28098935 4.35371968 0 5 C0 3.35 0 1.7 0 0 Z " fill="#EEEEEE" transform="translate(165,0)"/>
<path d="M0 0 C0.99 0 1.98 0 3 0 C3 4.95 3 9.9 3 15 C2.01 15 1.02 15 0 15 C0 10.05 0 5.1 0 0 Z " fill="#EEEEEE" transform="translate(345,390)"/>
<path d="M0 0 C0.99 0 1.98 0 3 0 C3 4.95 3 9.9 3 15 C2.01 15 1.02 15 0 15 C0 10.05 0 5.1 0 0 Z " fill="#EEEEEE" transform="translate(345,360)"/>
<path d="M0 0 C0.99 0 1.98 0 3 0 C3 4.95 3 9.9 3 15 C2.01 15 1.02 15 0 15 C0 10.05 0 5.1 0 0 Z " fill="#EEEEEE" transform="translate(345,330)"/>
<path d="M0 0 C0.99 0 1.98 0 3 0 C3 4.95 3 9.9 3 15 C2.01 15 1.02 15 0 15 C0 10.05 0 5.1 0 0 Z " fill="#EEEEEE" transform="translate(345,300)"/>
<path d="M0 0 C0.99 0 1.98 0 3 0 C3 4.95 3 9.9 3 15 C2.01 15 1.02 15 0 15 C0 10.05 0 5.1 0 0 Z " fill="#EEEEEE" transform="translate(345,270)"/>
<path d="M0 0 C0.99 0 1.98 0 3 0 C3 4.95 3 9.9 3 15 C2.01 15 1.02 15 0 15 C0 10.05 0 5.1 0 0 Z " fill="#EEEEEE" transform="translate(345,240)"/>
<path d="M0 0 C0.99 0 1.98 0 3 0 C3 4.95 3 9.9 3 15 C2.01 15 1.02 15 0 15 C0 10.05 0 5.1 0 0 Z " fill="#EEEEEE" transform="translate(345,210)"/>
<path d="M0 0 C0.99 0 1.98 0 3 0 C3 4.95 3 9.9 3 15 C2.01 15 1.02 15 0 15 C0 10.05 0 5.1 0 0 Z " fill="#EEEEEE" transform="translate(345,180)"/>
<path d="M0 0 C0.99 0 1.98 0 3 0 C3 4.95 3 9.9 3 15 C2.01 15 1.02 15 0 15 C0 10.05 0 5.1 0 0 Z " fill="#EEEEEE" transform="translate(345,150)"/>
<path d="M0 0 C0.99 0 1.98 0 3 0 C3 4.95 3 9.9 3 15 C2.01 15 1.02 15 0 15 C0 10.05 0 5.1 0 0 Z " fill="#EEEEEE" transform="translate(345,120)"/>
<path d="M0 0 C0.99 0 1.98 0 3 0 C3 4.95 3 9.9 3 15 C2.01 15 1.02 15 0 15 C0 10.05 0 5.1 0 0 Z " fill="#FFFFFF" transform="translate(345,105)"/>
<path d="M0 0 C0.99 0 1.98 0 3 0 C3 4.95 3 9.9 3 15 C2.01 15 1.02 15 0 15 C0 10.05 0 5.1 0 0 Z " fill="#EEEEEE" transform="translate(345,90)"/>
<path d="M0 0 C0.99 0 1.98 0 3 0 C3 4.95 3 9.9 3 15 C2.01 15 1.02 15 0 15 C0 10.05 0 5.1 0 0 Z " fill="#FFFFFF" transform="translate(345,75)"/>
<path d="M0 0 C0.99 0 1.98 0 3 0 C3 4.95 3 9.9 3 15 C2.01 15 1.02 15 0 15 C0 10.05 0 5.1 0 0 Z " fill="#EEEEEE" transform="translate(345,60)"/>
<path d="M0 0 C0.99 0 1.98 0 3 0 C3 4.95 3 9.9 3 15 C2.01 15 1.02 15 0 15 C0 10.05 0 5.1 0 0 Z " fill="#EEEEEE" transform="translate(345,30)"/>
<path d="M0 0 C0.99 0 1.98 0 3 0 C3 4.95 3 9.9 3 15 C2.01 15 1.02 15 0 15 C0 10.05 0 5.1 0 0 Z " fill="#EEEEEE" transform="translate(345,0)"/>
<path d="M0 0 C0.99 0 1.98 0 3 0 C3 4.95 3 9.9 3 15 C2.01 15 1.02 15 0 15 C0 10.05 0 5.1 0 0 Z " fill="#EEEEEE" transform="translate(0,135)"/>
<path d="M0 0 C0.99 0 1.98 0 3 0 C3 3.96 3 7.92 3 12 C2.01 12 1.02 12 0 12 C0 8.04 0 4.08 0 0 Z " fill="#FFFFFF" transform="translate(345,435)"/>
<path d="M0 0 C2.64 0 5.28 0 8 0 C8 2.97 8 5.94 8 9 C7.01 8.01 6.02 7.02 5 6 C5 5.34 5 4.68 5 4 C4.360625 3.71125 3.72125 3.4225 3.0625 3.125 C1 2 1 2 0 0 Z " fill="#EEEEEE" transform="translate(322,210)"/>
<path d="M0 0 C2.31 0 4.62 0 7 0 C6.02501855 1.5027237 5.04490611 3.00211963 4.0625 4.5 C3.51722656 5.3353125 2.97195312 6.170625 2.41015625 7.03125 C1.71212891 8.00578125 1.71212891 8.00578125 1 9 C0.67 9 0.34 9 0 9 C0 6.03 0 3.06 0 0 Z " fill="#EEEEEE" transform="translate(30,75)"/>
<path d="M0 0 C0.33 0 0.66 0 1 0 C1 2.64 1 5.28 1 8 C-1.31 8 -3.62 8 -6 8 C-5.02471263 6.66382648 -4.04466681 5.3311249 -3.0625 4 C-2.24458984 2.88625 -2.24458984 2.88625 -1.41015625 1.75 C-0.94480469 1.1725 -0.47945313 0.595 0 0 Z " fill="#EEEEEE" transform="translate(329,187)"/>
<path d="M0 0 C4.95 0 9.9 0 15 0 C15 0.99 15 1.98 15 3 C7.575 2.01 7.575 2.01 0 1 C0 0.67 0 0.34 0 0 Z " fill="#EEEEEE" transform="translate(60,45)"/>
<path d="M0 0 C2.32472205 2.85306797 3.7508258 5.54074837 5 9 C3.35 9 1.7 9 0 9 C0 6.03 0 3.06 0 0 Z " fill="#EEEEEE" transform="translate(45,276)"/>
<path d="M0 0 C1.98 0 3.96 0 6 0 C6 2.31 6 4.62 6 7 C5.01 6.34 4.02 5.68 3 5 C3 4.34 3 3.68 3 3 C2.34 3 1.68 3 1 3 C0.67 2.01 0.34 1.02 0 0 Z " fill="#EEEEEE" transform="translate(324,90)"/>
<path d="M0 0 C3.96 0 7.92 0 12 0 C8.09567131 1.95216435 5.27786748 2.50639991 1 3 C0.67 2.01 0.34 1.02 0 0 Z " fill="#EEEEEE" transform="translate(273,45)"/>
<path d="M0 0 C2.5 1.375 2.5 1.375 5 3 C5 3.66 5 4.32 5 5 C3.35 5.66 1.7 6.32 0 7 C0 4.69 0 2.38 0 0 Z " fill="#EEEEEE" transform="translate(30,200)"/>
<path d="M0 0 C0.99 0 1.98 0 3 0 C2.74438677 2.3431213 2.40729228 4.67843403 2 7 C1.01 7.495 1.01 7.495 0 8 C0 5.36 0 2.72 0 0 Z " fill="#EEEEEE" transform="translate(45,60)"/>
</svg>
